<?xml version="1.0" encoding="utf-8"?>
<svg width="800px" height="800px" viewBox="0 0 24 24" fill="none" xmlns="http://www.w3.org/2000/svg">
  <path d="M2 11L5.5 14.5L7.5 12.5" stroke="#f97316" stroke-width="1.5" stroke-linecap="round" stroke-linejoin="round"/>
  <path d="M14 15L12 21L13 21" stroke="#f97316" stroke-width="1.5" stroke-linecap="round" stroke-linejoin="round"/>
  <path d="M16 16L18 21L19 21" stroke="#f97316" stroke-width="1.5" stroke-linecap="round" stroke-linejoin="round"/>
  <path d="M8 16L9 19" stroke="#f97316" stroke-width="1.5" stroke-linecap="round" stroke-linejoin="round"/>
  <path d="M18.5 9.5V3.5" stroke="#f97316" stroke-width="1.5" stroke-linecap="round" stroke-linejoin="round"/>
  <path d="M20.5 5.5L18.5 3.5L16.5 5.5" stroke="#f97316" stroke-width="1.5" stroke-linecap="round" stroke-linejoin="round"/>
  <path d="M3.5 15.5C3.48884 13.5767 4.22869 11.7313 5.57771 10.3822C6.92673 9.03316 8.77215 8.29331 10.6955 8.30447C12.6188 8.31563 14.4542 9.05548 15.8033 10.4045C17.1523 11.7535 17.8922 13.5989 17.881 15.5222V15.522" stroke="#f97316" stroke-width="1.5" stroke-linecap="round" stroke-linejoin="round"/>
</svg> 