<?xml version="1.0" encoding="utf-8"?>
<svg width="800px" height="800px" viewBox="0 0 24 24" fill="none" xmlns="http://www.w3.org/2000/svg">
  <path d="M10 16.95H2C1.59 16.95 1.25 16.61 1.25 16.2V4.5C1.25 4.09 1.59 3.75 2 3.75H18C18.41 3.75 18.75 4.09 18.75 4.5V9" stroke="#f97316" stroke-width="1.5" stroke-linecap="round" stroke-linejoin="round"/>
  <path d="M10 22.75V16.25H15.5V22.75" stroke="#f97316" stroke-width="1.5" stroke-linecap="round" stroke-linejoin="round"/>
  <path d="M17.9 21.25H7.6C6.65 21.25 5.75 20.52 5.75 19.25V11.75C5.75 10.48 6.65 9.75 7.6 9.75H17.9C18.85 9.75 19.75 10.48 19.75 11.75V19.25C19.75 20.52 18.85 21.25 17.9 21.25Z" stroke="#f97316" stroke-width="1.5" stroke-linecap="round" stroke-linejoin="round"/>
  <path d="M10 3.75V8.25" stroke="#f97316" stroke-width="1.5" stroke-linecap="round" stroke-linejoin="round"/>
</svg> 