<?xml version="1.0" encoding="utf-8"?>
<svg width="800px" height="800px" viewBox="0 0 24 24" fill="none" xmlns="http://www.w3.org/2000/svg">
  <path d="M3 6.5C3 4.84315 4.34315 3.5 6 3.5H18C19.6569 3.5 21 4.84315 21 6.5V17.5C21 19.1569 19.6569 20.5 18 20.5H6C4.34315 20.5 3 19.1569 3 17.5V6.5Z" stroke="#f97316" stroke-width="1.5"/>
  <path d="M7 20.5V3.5" stroke="#f97316" stroke-width="1.5"/>
  <path d="M13.5 12.5L15.5 9.5L17.5 12.5H13.5Z" stroke="#f97316" stroke-width="1.5" stroke-linecap="round" stroke-linejoin="round"/>
  <path d="M13.5 16.5C14.6046 16.5 15.5 15.6046 15.5 14.5C15.5 13.3954 14.6046 12.5 13.5 12.5C12.3954 12.5 11.5 13.3954 11.5 14.5C11.5 15.6046 12.3954 16.5 13.5 16.5Z" stroke="#f97316" stroke-width="1.5" stroke-linecap="round" stroke-linejoin="round"/>
  <path d="M11.5 7.5H15.5" stroke="#f97316" stroke-width="1.5" stroke-linecap="round"/>
</svg> 